<?xml version="1.0" encoding="UTF-8" standalone="no"?>
<!-- Created with Inkscape (http://www.inkscape.org/) -->

<svg
   width="73.621902mm"
   height="19.418995mm"
   viewBox="0 0 73.621902 19.418995"
   version="1.1"
   id="svg1"
   xml:space="preserve"
   sodipodi:docname="drawing-2.svg"
   inkscape:version="1.3.2 (091e20e, 2023-11-25, custom)"
   xmlns:inkscape="http://www.inkscape.org/namespaces/inkscape"
   xmlns:sodipodi="http://sodipodi.sourceforge.net/DTD/sodipodi-0.dtd"
   xmlns="http://www.w3.org/2000/svg"
   xmlns:svg="http://www.w3.org/2000/svg"><sodipodi:namedview
     id="namedview1"
     pagecolor="#ffffff"
     bordercolor="#111111"
     borderopacity="1"
     inkscape:showpageshadow="0"
     inkscape:pageopacity="0"
     inkscape:pagecheckerboard="1"
     inkscape:deskcolor="#d1d1d1"
     inkscape:document-units="mm"
     inkscape:zoom="2.0000001"
     inkscape:cx="331.99999"
     inkscape:cy="659.24998"
     inkscape:window-width="2560"
     inkscape:window-height="1375"
     inkscape:window-x="1304"
     inkscape:window-y="27"
     inkscape:window-maximized="1"
     inkscape:current-layer="layer2"
     showguides="true"><sodipodi:guide
       position="170.80219,120.86878"
       orientation="1,0"
       id="guide3"
       inkscape:locked="false" /></sodipodi:namedview><defs
     id="defs1" /><g
     inkscape:groupmode="layer"
     id="layer2"
     inkscape:label="Layer 2"
     transform="translate(-6.3707811,-6.2802251)"><path
       style="font-weight:bold;font-size:64px;font-family:Geometos;-inkscape-font-specification:'Geometos, Bold';letter-spacing:3.15923px;white-space:pre;stroke:#000000;stroke-width:3.18843;stroke-linecap:square;paint-order:stroke fill markers"
       d="m 268.89533,466.05987 h -13.376 v 38.912 h -8.96 v -38.912 h -13.44 v -7.936 h 35.776 z m 18.19921,0 v 11.712 h 22.656 v 8.128 h -22.656 v 11.008 h 25.536 v 8.064 h -34.432 v -46.848 h 34.432 v 7.936 z m 79.57524,27.392 q -1.536,2.816 -3.776,5.12 -2.24,2.24 -4.992,3.904 -2.688,1.6 -5.888,2.496 -3.136,0.896 -6.528,0.896 -4.992,0 -9.408,-1.92 -4.416,-1.92 -7.744,-5.184 -3.264,-3.328 -5.184,-7.744 -1.92,-4.416 -1.92,-9.408 0,-4.992 1.92,-9.408 1.92,-4.416 5.184,-7.68 3.328,-3.328 7.744,-5.248 4.416,-1.92 9.408,-1.92 3.392,0 6.528,0.896 3.2,0.896 5.888,2.56 2.752,1.6 4.992,3.904 2.24,2.24 3.776,4.992 l -8.384,3.392 q -1.024,-1.536 -2.432,-2.88 -1.344,-1.344 -3.008,-2.368 -1.664,-1.024 -3.52,-1.6 -1.856,-0.576 -3.84,-0.576 -3.2,0 -6.016,1.344 -2.752,1.28 -4.8,3.456 -2.048,2.176 -3.264,5.12 -1.216,2.88 -1.216,6.016 0,3.2 1.216,6.08 1.216,2.88 3.264,5.056 2.048,2.176 4.8,3.52 2.816,1.28 6.016,1.28 1.984,0 3.84,-0.576 1.856,-0.576 3.52,-1.6 1.664,-1.024 3.008,-2.368 1.408,-1.408 2.432,-2.944 z m 51.03122,-35.328 v 46.848 h -8.896 v -18.624 h -23.168 v 18.624 h -8.896 v -46.848 h 8.896 v 20.224 h 23.168 v -20.224 z m 22.29518,7.936 v 11.712 h 22.656 v 8.128 h -22.656 v 11.008 h 25.536 v 8.064 h -34.432 v -46.848 h 34.432 v 7.936 z m 71.70326,30.976 v 7.936 h -33.728 v -46.848 h 8.96 v 38.912 z m 19.03123,7.936 h -8.96 v -46.784 h 8.96 z m 45.71922,-38.912 h -13.376 v 38.912 h -8.96 v -38.912 h -13.44 v -7.936 h 35.776 z m 18.1992,0 v 11.712 h 22.656 v 8.128 h -22.656 v 11.008 h 25.536 v 8.064 h -34.432 v -46.848 h 34.432 v 7.936 z"
       id="text7"
       transform="matrix(0.18865115,0,0,0.16445267,-37.306698,-68.670996)"
       aria-label="TECHELITE" /><path
       style="font-weight:300;font-size:5.14117px;font-family:'CocoSharp Trial';-inkscape-font-specification:'CocoSharp Trial, Light';font-variation-settings:'wght' 700;letter-spacing:0.145666px;stroke:#000000;stroke-width:0;stroke-linecap:square;paint-order:stroke fill markers"
       d="m 48.314243,21.482817 h -0.267341 v -3.611672 h 0.267341 z m 1.464377,0 h -0.267341 v -3.611672 h 0.257059 l 2.454908,3.16696 v -3.16696 h 0.264771 v 3.611672 H 52.236099 L 49.77862,18.310715 Z m 4.176345,0 h -0.267341 v -3.611672 h 0.257059 l 2.454909,3.16696 v -3.16696 h 0.26477 v 3.611672 h -0.251917 l -1.22874,-1.586051 -1.22874,-1.586051 z m 5.497626,0.05655 c -0.339317,0 -0.651214,-0.08226 -0.935693,-0.246777 C 58.234134,21.128075 58.010493,20.903578 57.845976,20.6191 57.681459,20.334622 57.5992,20.021011 57.5992,19.678266 c 0,-0.344459 0.08226,-0.658927 0.246776,-0.943405 0.164517,-0.284478 0.388158,-0.508976 0.670922,-0.673493 0.284479,-0.164517 0.596376,-0.246776 0.935693,-0.246776 0.341031,0 0.652929,0.08226 0.935693,0.246776 0.282765,0.164517 0.506406,0.389015 0.670923,0.673493 0.164517,0.284478 0.246776,0.598946 0.246776,0.943405 0,0.342745 -0.08226,0.656356 -0.246776,0.940834 -0.164517,0.284478 -0.389015,0.508976 -0.673493,0.673493 -0.282765,0.164518 -0.593806,0.246777 -0.933123,0.246777 z m 0,-0.25963 c 0.287906,0 0.552676,-0.07026 0.794311,-0.210787 0.243349,-0.142239 0.435286,-0.335033 0.575811,-0.578382 0.142239,-0.245063 0.213359,-0.515831 0.213359,-0.812305 0,-0.296474 -0.07112,-0.567242 -0.213359,-0.812305 -0.140525,-0.245063 -0.332462,-0.437856 -0.575811,-0.578381 -0.241635,-0.142239 -0.506405,-0.213359 -0.794311,-0.213359 -0.286191,0 -0.550961,0.07112 -0.79431,0.213359 -0.241635,0.140525 -0.433572,0.333318 -0.575811,0.578381 -0.140525,0.245063 -0.210788,0.515831 -0.210788,0.812305 0,0.296474 0.07026,0.567242 0.210788,0.812305 0.142239,0.243349 0.334176,0.436143 0.575811,0.578382 0.243349,0.140525 0.508119,0.210787 0.79431,0.210787 z m 3.901293,0.203077 h -0.249347 l -1.467804,-3.611672 h 0.285335 l 1.308428,3.256931 0.0026,-0.0051 1.300716,-3.25179 h 0.285335 z m 4.600494,0 H 67.674184 L 67.296308,20.536841 H 65.41464 l -0.377876,0.945976 H 64.75657 l 1.470375,-3.614243 h 0.254487 z m -1.616898,-3.259502 -0.825158,2.06675 h 1.683733 l -0.827728,-2.06675 -0.01542,-0.04113 z m 3.070997,3.259502 H 69.141136 V 18.12563 h -1.22874 v -0.254488 h 2.727391 v 0.254488 h -1.23131 z m 4.538795,0 h -2.526885 v -3.611672 h 2.490897 v 0.251917 h -2.223556 v 1.370122 h 1.830257 v 0.249347 h -1.830257 v 1.485798 h 2.259544 z"
       id="text16"
       transform="scale(1.0572992,0.94580602)"
       aria-label="INNOVATE&#10;"
       sodipodi:nodetypes="ccccccccccccccccccccccccccccscssscssssscsssccsccsccsccscccccccccccccccccccccccccccccccccccccccccccccc" /><path
       id="rect3"
       style="stroke:#000000;stroke-width:1.01894;stroke-linecap:square;paint-order:stroke fill markers"
       d="M 6.9002047,17.411234 H 47.458119 v 2.515887 H 6.9002047 Z" /><path
       style="font-weight:300;font-size:4.9371px;font-family:'CocoSharp Trial';-inkscape-font-specification:'CocoSharp Trial, Light';font-variation-settings:'wght' 700;letter-spacing:0.139884px;stroke:#000000;stroke-width:0;stroke-linecap:square;paint-order:stroke fill markers"
       d="m 53.191693,26.034004 h -0.256729 v -3.223926 h -1.179967 v -0.244386 h 2.619131 v 0.244386 h -1.182435 z m 3.237913,0.05431 q -0.488773,0 -0.898552,-0.23698 -0.407311,-0.236981 -0.644291,-0.646761 -0.236981,-0.409779 -0.236981,-0.903489 0,-0.496178 0.236981,-0.905958 0.23698,-0.409779 0.644291,-0.64676 0.409779,-0.236981 0.898552,-0.236981 0.491242,0 0.898553,0.236981 0.40731,0.236981 0.644291,0.64676 0.236981,0.40978 0.236981,0.905958 0,0.49371 -0.236981,0.903489 -0.236981,0.40978 -0.64676,0.646761 -0.407311,0.23698 -0.896084,0.23698 z m 0,-0.249323 q 0.414717,0 0.762782,-0.202421 0.350534,-0.20489 0.552956,-0.555424 0.204889,-0.353003 0.204889,-0.780062 0,-0.427059 -0.204889,-0.780062 -0.202422,-0.353002 -0.552956,-0.555423 -0.348065,-0.20489 -0.762782,-0.20489 -0.412247,0 -0.762782,0.20489 -0.348065,0.202421 -0.552955,0.555423 -0.202421,0.353003 -0.202421,0.780062 0,0.427059 0.202421,0.780062 0.20489,0.350534 0.552955,0.555424 0.350535,0.202421 0.762782,0.202421 z m 5.111544,-1.355234 h 0.246855 v 1.212058 q -0.241918,0.18761 -0.54555,0.293757 -0.303632,0.103679 -0.609732,0.103679 -0.488773,0 -0.898552,-0.239449 -0.407311,-0.239449 -0.644291,-0.651697 -0.236981,-0.412248 -0.236981,-0.905958 0,-0.49371 0.236981,-0.903489 0.23698,-0.412248 0.644291,-0.649229 0.409779,-0.239449 0.898552,-0.239449 0.325849,0 0.627012,0.116022 0.303632,0.116021 0.533207,0.32338 l -0.155519,0.192547 q -0.207358,-0.177736 -0.466556,-0.278947 -0.259198,-0.103679 -0.538144,-0.103679 -0.412248,0 -0.762782,0.20489 -0.348065,0.20489 -0.552955,0.560361 -0.20489,0.353002 -0.20489,0.777593 0,0.427059 0.20489,0.78253 0.20489,0.355472 0.552955,0.56283 0.350534,0.204889 0.762782,0.204889 0.224638,0 0.471493,-0.07159 0.249324,-0.07406 0.436934,-0.197484 z m 3.630413,1.550249 h -2.426584 v -3.468312 h 2.392025 v 0.241917 h -2.135296 v 1.315738 h 1.757607 v 0.239449 h -1.757607 v 1.426822 h 2.169855 z m 1.932053,0 H 66.846887 V 22.810078 H 65.66692 v -0.244386 h 2.619132 v 0.244386 h -1.182436 z m 2.188781,0 h -0.256729 v -3.468312 h 0.256729 v 1.58234 h 2.295752 v -1.58234 h 0.256729 v 3.468312 h -0.256729 v -1.639117 h -2.295752 z m 6.131056,0 h -2.426584 v -3.468312 h 2.392025 v 0.241917 h -2.135296 v 1.315738 h 1.757608 v 0.239449 h -1.757608 v 1.426822 h 2.169855 z m 3.341596,-2.372276 q 0,0.372751 -0.177735,0.631948 -0.175267,0.259198 -0.488773,0.37522 l 0.62948,1.365108 h -0.286352 l -0.589983,-1.298457 q -0.133302,0.02222 -0.278946,0.02222 h -0.994826 v 1.27624 h -0.256729 v -3.468312 h 1.303394 q 0.343129,0 0.599858,0.13577 0.259198,0.133301 0.399905,0.382625 0.140707,0.246855 0.140707,0.577641 z m -2.187135,0.861524 h 1.026917 q 0.27154,0 0.473961,-0.103679 0.20489,-0.106148 0.313506,-0.301164 0.111085,-0.195015 0.111085,-0.454213 0,-0.261666 -0.111085,-0.456682 -0.108616,-0.195015 -0.313506,-0.298694 -0.202421,-0.103679 -0.473961,-0.103679 h -1.026917 z"
       id="text26"
       transform="scale(1.0153325,0.98489908)"
       aria-label="TOGETHER" /></g></svg>
