<?xml version="1.0" encoding="UTF-8" standalone="no"?>
<!-- Uploaded to: SVG Repo, www.svgrepo.com, Generator: SVG Repo Mixer Tools -->

<svg
   width="666.66663"
   height="666.66681"
   viewBox="0 0 19.999999 20.000004"
   fill="none"
   version="1.1"
   id="svg2"
   sodipodi:docname="logout-svgrepo-com.svg"
   inkscape:version="1.3.2 (091e20e, 2023-11-25, custom)"
   xmlns:inkscape="http://www.inkscape.org/namespaces/inkscape"
   xmlns:sodipodi="http://sodipodi.sourceforge.net/DTD/sodipodi-0.dtd"
   xmlns="http://www.w3.org/2000/svg"
   xmlns:svg="http://www.w3.org/2000/svg">
  <defs
     id="defs2" />
  <sodipodi:namedview
     id="namedview2"
     pagecolor="#ffffff"
     bordercolor="#111111"
     borderopacity="1"
     inkscape:showpageshadow="0"
     inkscape:pageopacity="0"
     inkscape:pagecheckerboard="1"
     inkscape:deskcolor="#d1d1d1"
     inkscape:zoom="1.0253048"
     inkscape:cx="231.63843"
     inkscape:cy="380.37468"
     inkscape:window-width="2560"
     inkscape:window-height="1374"
     inkscape:window-x="1304"
     inkscape:window-y="28"
     inkscape:window-maximized="1"
     inkscape:current-layer="svg2" />
  <path
     d="M 20,4.6221944 V 15.245004 c 0,1.1129 -0.7143,2.2258 -1.8367,2.6304 l -5.1021,1.9223 c -0.3061,0.1011 -0.6122,0.2023 -1.0204,0.2023 -0.5102,0 -1.1224,-0.2023 -1.6326,-0.5058 -0.2041,-0.2024 -0.5101999,-0.4047 -0.6122999,-0.6071 h -3.87753 c -1.53061,0 -2.85715,-1.214 -2.85715,-2.8327 v -1.0117 c 0,-0.4047 0.30613,-0.8094 0.81633,-0.8094 0.51021,0 0.81633,0.3035 0.81633,0.8094 v 1.0117 c 0,0.7082 0.61224,1.214 1.22449,1.214 h 3.36733 V 2.6999744 h -3.36733 c -0.71429,0 -1.22449,0.50585 -1.22449,1.21404 v 1.01169 c 0,0.40468 -0.30612,0.80936 -0.81633,0.80936 -0.5102,0 -0.81633,-0.40468 -0.81633,-0.80936 v -1.01169 c 0,-1.51755 1.2245,-2.83276 2.85715,-2.83276 h 3.87753 C 10,0.87891441 10.2041,0.67657441 10.4082,0.47423441 c 0.8163,-0.50585 1.7347,-0.60702 2.653,-0.30351 L 18.1633,2.0929544 C 19.1837,2.3964644 20,3.5093344 20,4.6221944 Z"
     fill="#030D45"
     id="path1"
     style="fill:#e3e3e3;fill-opacity:1"
     inkscape:export-filename="..\source\repos\rebeccagh96\TechEliteWebshop\TechElite\wwwroot\img\Icons\logout.svg"
     inkscape:export-xdpi="96"
     inkscape:export-ydpi="96" />
  <path
     d="m 4.8979601,12.816904 c 0.20408,0 0.40816,-0.1011 0.5102,-0.2023 l 2.04082,-2.0234 c 0.10204,-0.1012 0.10204,-0.2023 0.20408,-0.2023 0,-0.1012 0.10204,-0.2024 0.10204,-0.3035 0,-0.1011996 0,-0.2023996 -0.10204,-0.3034996 0,-0.1012 -0.10204,-0.2024 -0.20408,-0.2024 l -2.04082,-2.02338 c -0.30612,-0.30351 -0.81633,-0.30351 -1.12245,0 -0.30612,0.30351 -0.30612,0.80938 0,1.11288 l 0.71429,0.7082 H 0.81632012 c -0.40816,0 -0.81632000079071,0.3035 -0.81632000079071,0.8092996 0,0.5059 0.40816000079071,0.6071 0.81632000079071,0.6071 H 5.1020401 l -0.71429,0.7081 c -0.30612,0.3035 -0.30612,0.8094 0,1.1129 0.10204,0.1012 0.30613,0.2023 0.51021,0.2023 z"
     fill="#030D45"
     id="path2"
     style="fill:#e3e3e3;fill-opacity:1" />
</svg>
