<?xml version="1.0" encoding="UTF-8" standalone="no"?>
<svg
   height="20"
   viewBox="0 -960 845.56747 800"
   width="21.139187"
   fill="#e8eaed"
   version="1.1"
   id="svg1"
   sodipodi:docname="account.svg"
   inkscape:version="1.3.2 (091e20e, 2023-11-25, custom)"
   xmlns:inkscape="http://www.inkscape.org/namespaces/inkscape"
   xmlns:sodipodi="http://sodipodi.sourceforge.net/DTD/sodipodi-0.dtd"
   xmlns="http://www.w3.org/2000/svg"
   xmlns:svg="http://www.w3.org/2000/svg">
  <defs
     id="defs1" />
  <sodipodi:namedview
     id="namedview1"
     pagecolor="#ffffff"
     bordercolor="#111111"
     borderopacity="1"
     inkscape:showpageshadow="0"
     inkscape:pageopacity="0"
     inkscape:pagecheckerboard="1"
     inkscape:deskcolor="#d1d1d1"
     inkscape:zoom="32"
     inkscape:cx="10.328125"
     inkscape:cy="10.125"
     inkscape:window-width="2560"
     inkscape:window-height="1374"
     inkscape:window-x="1304"
     inkscape:window-y="28"
     inkscape:window-maximized="1"
     inkscape:current-layer="svg1" />
  <path
     id="path1"
     d="m 400,-960 c -55.33327,0 -107.349,10.4844 -156.01562,31.48438 -48.66663,20.99997 -90.95317,49.54691 -126.95313,85.54687 -35.99996,35.99996 -64.5469,78.2865 -85.54687,126.95313 C 10.484396,-667.349 0,-615.33327 0,-560 c 0,55.33327 10.484396,107.349 31.48438,156.01562 20.99997,48.66663 49.54691,90.95317 85.54687,126.95313 35.99996,35.99996 78.2865,64.5469 126.95313,85.54687 C 292.651,-170.4844 344.66673,-160 400,-160 c 55.33327,0 107.349,-10.4844 156.01562,-31.48438 48.66663,-20.99997 90.95317,-49.54691 126.95313,-85.54687 35.99996,-35.99996 64.5469,-78.2865 85.54687,-126.95313 C 789.5156,-452.651 802.36334,-504.71722 800,-560 c -1.92296,-44.98162 -82.198,-38.65169 -80,0 2.23315,39.26984 -6.53126,76.34899 -19.53125,111.01562 -12.99999,34.66664 -31.11982,65.63545 -54.45313,92.96876 C 612.01566,-382.0156 574.03121,-402.50002 532.03125,-417.5 490.03129,-432.49998 445.99995,-440 400,-440 c -45.99995,0 -90.03129,7.50002 -132.03125,22.5 -41.99996,14.99998 -79.98441,35.4844 -113.98437,61.48438 -23.33331,-27.33331 -41.45314,-58.30212 -54.45313,-92.96876 C 86.53126,-483.65101 80,-520.66671 80,-560 80,-648.66658 111.18236,-724.15111 173.51562,-786.48438 235.84889,-848.81764 311.33342,-880 400,-880 c 20.62116,0 35.13768,-0.82336 59.95025,4.57883 55.63061,12.1119 84.99945,-62.26378 21.88349,-77.18291 C 455.63817,-958.79609 428.03211,-960 400,-960 Z m 0,160 c -39.33329,0 -72.53128,13.46878 -99.53125,40.46875 C 273.46878,-732.53128 260,-699.33329 260,-660 c 0,39.33329 13.46878,72.53128 40.46875,99.53125 C 327.46872,-533.46878 360.66671,-520 400,-520 c 39.33329,0 72.53128,-13.46878 99.53125,-40.46875 C 526.53122,-587.46872 540,-620.66671 540,-660 c 0,-39.33329 -13.46878,-72.53128 -40.46875,-99.53125 C 472.53128,-786.53122 439.33329,-800 400,-800 Z m 0,80 c 17.33331,0 31.63543,5.69793 42.96875,17.03125 C 454.30207,-691.63543 460,-677.33331 460,-660 c 0,17.33331 -5.69793,31.63543 -17.03125,42.96875 C 431.63543,-605.69793 417.33331,-600 400,-600 c -17.33331,0 -31.63543,-5.69793 -42.96875,-17.03125 C 345.69793,-628.36457 340,-642.66669 340,-660 c 0,-17.33331 5.69793,-31.63543 17.03125,-42.96875 C 368.36457,-714.30207 382.66669,-720 400,-720 Z m 0,360 c 35.33329,0 68.6667,5.13543 100,15.46875 31.3333,10.33332 60.01565,25.19794 86.01562,44.53125 C 560.01565,-280.66669 531.3333,-265.80207 500,-255.46875 468.6667,-245.13543 435.33329,-240 400,-240 c -35.33329,0 -68.6667,-5.13543 -100,-15.46875 C 268.6667,-265.80207 239.98435,-280.66669 213.98438,-300 239.98435,-319.33331 268.6667,-334.19793 300,-344.53125 331.3333,-354.86457 364.66671,-360 400,-360 Z"
     sodipodi:nodetypes="ssssssssssssssscssscsssssssscssssssssssssssssccsscsssc"
     style="fill:#e3e3e3;fill-opacity:1" />
  <path
     id="path56"
     style="fill:#e3e3e3;stroke:#b3ff50;stroke-width:0;stroke-linecap:square;paint-order:stroke fill markers"
     d="M 803.55979,-756.4081 H 561.51176 c -59.34909,-0.15665 -57.94166,-79.15058 -0.21275,-79.11619 h 242.26078 c 56.52052,-0.10972 55.49765,79.12287 0,79.11619 z"
     sodipodi:nodetypes="ccccc" />
  <path
     id="path57"
     style="fill:#e3e3e3;stroke:#b3ff50;stroke-width:0;stroke-linecap:square;paint-order:stroke fill markers"
     d="m 721.09189,-917.99231 v 242.04803 c -0.15665,59.34909 -79.15058,57.94166 -79.11619,0.21275 v -242.26078 c -0.10972,-56.52052 79.12287,-55.49765 79.11619,0 z"
     sodipodi:nodetypes="ccccc" />
</svg>
